<?xml version="1.0" encoding="UTF-8"?>
<svg width="12px" height="21px" viewBox="0 0 12 21" version="1.1" xmlns="http://www.w3.org/2000/svg" xmlns:xlink="http://www.w3.org/1999/xlink">
    <title>Group 5</title>
    <g id="Monthly-Screens" stroke="none" stroke-width="1" fill="none" fill-rule="evenodd">
        <g id="Profile---OWNER" transform="translate(-29.000000, -119.000000)" fill="#FFFFFF">
            <g id="Post-food" transform="translate(17.000000, 107.000000)">
                <g id="Group-5" transform="translate(12.000000, 12.000000)">
                    <path d="M7.80553191,2.14382227 C7.80553191,2.14382227 7.51743605,5.54402685 7.35421594,7.68429405 C7.3417332,7.84797731 7.42462509,7.87630255 7.41378784,8.02316284 C7.41173796,8.05094173 7.31507656,8.20637117 7.31309341,8.23345947 C7.29850597,8.43271237 7.32768085,8.67089163 7.31309341,8.87014453 L7.1743617,10.7651104 C7.14632979,11.1410644 7.27880319,11.51348 7.54194149,11.7890321 C7.80417553,12.0645843 8.17175532,12.2242542 8.55651596,12.2242542 L8.59359043,12.2242542 L8.51637099,14.6412416 C8.50905962,14.870089 8.60090179,15.0804788 8.59359043,15.3093262 C8.58232799,15.6618432 8.47191203,16.0328178 8.4606496,16.3853348 L8.37792553,18.9746184 C8.36843085,19.2634395 8.47965426,19.5354533 8.68537234,19.7420068 C8.8906383,19.9498873 9.17321809,20.0582505 9.46845745,20.0582505 L10.373617,20.0582505 C10.9758511,20.0582505 11.4781649,19.594279 11.4781649,19.0042524 C11.4781649,19.0042524 11.4781649,18.1760713 11.4781649,16.8974956 C11.4781649,16.8409314 11.4075012,16.799536 11.4075012,16.7412415 C11.4075012,16.6919542 11.4781649,16.6260098 11.4781649,16.5755287 C11.4781649,13.6004253 11.4781649,8.58651103 11.4781649,5.58081055 C11.4781649,5.3108724 11.3638306,4.95255534 11.3638306,4.68261719 C11.3638306,4.56249554 11.4781649,4.42330049 11.4781649,4.28363093 C11.4781649,3.07727395 11.4781649,1.28001272 11.4781649,1.28001272 C11.4781649,0.573219241 10.8854255,0 10.1624734,0 C8.925,0 7.89324468,0.936346554 7.80553191,2.14382227 Z" id="Shape"></path>
                    <path d="M4.86444149,0.0141535615 C4.64425532,0.0141535615 4.47515957,0.175592623 4.47515957,0.391876735 L4.47515957,4.1912234 C4.47515957,4.52825509 4.18625,4.80380724 3.84218085,4.80380724 L3.74949468,4.80380724 C3.40542553,4.80380724 3.11380319,4.52825509 3.11380319,4.1912234 L3.11380319,2.62405396 C3.11380319,2.58488973 3.03439331,2.56605021 3.03439331,2.52688599 C3.03439331,2.48217773 3.11380319,2.41714478 3.11380319,2.37243652 L3.11380319,0.391876735 C3.11380319,0.176034921 2.94787234,0.0141535615 2.72723404,0.0141535615 L2.63364362,0.0141535615 C2.41300532,0.0141535615 2.23757979,0.175592623 2.23757979,0.391876735 L2.23757979,4.1912234 C2.23757979,4.52825509 1.95545213,4.80380724 1.61093085,4.80380724 L1.51869681,4.80380724 C1.17462766,4.80380724 0.90787234,4.52825509 0.90787234,4.1912234 L0.90787234,1.02676392 C0.90787234,0.985249837 0.866119385,0.94434611 0.866119385,0.902832031 C0.866119385,0.869455973 0.90787234,0.835469564 0.90787234,0.802093506 L0.90787234,0.391876735 C0.90787234,0.176034921 0.71662234,0.0141535615 0.495984043,0.0141535615 L0.403297872,0.0141535615 C0.183111702,0.0141535615 -2.11057008e-30,0.175592623 -2.11057008e-30,0.391876735 L-2.11057008e-30,5.02706909 C-2.11057008e-30,5.07133993 0.0926208496,5.10224406 0.0926208496,5.14651489 C0.0926208496,5.19147746 -2.11057008e-30,5.24980672 -2.11057008e-30,5.29476929 L-2.11057008e-30,6.13866501 C-2.11057008e-30,6.84545849 0.58912234,7.40452417 1.31162234,7.40452417 L1.48614362,7.40452417 C1.48614362,7.40452417 1.46009222,8.22132662 1.44706652,8.62972785 C1.44562017,8.67507613 1.48758997,8.71572959 1.48614362,8.76107788 C1.4844126,8.81535122 1.43923782,8.87518523 1.43745289,8.93114879 C1.40129824,10.0647238 1.35435571,11.5365363 1.30760892,13.0022119 C1.30580059,13.0589095 1.38065233,13.089642 1.37884521,13.1463013 C1.37746877,13.1894578 1.29943307,13.2585533 1.29805798,13.3016672 L1.13784692,18.3248448 C1.13609368,18.379815 1.19909124,18.4154223 1.19754028,18.4640503 C1.1960436,18.5109764 1.12999127,18.5711469 1.12869241,18.6118707 C1.12131871,18.8430623 1.11720745,18.9719646 1.11720745,18.9719646 C1.10771277,19.2607857 1.21848404,19.5341264 1.42420213,19.7415645 C1.62946809,19.9490027 1.9125,20.0591351 2.20819149,20.0591351 L3.07808511,20.0591351 C3.37287234,20.0591351 3.65590426,19.9490027 3.86162234,19.7415645 C4.06734043,19.5336841 4.17765957,19.2572473 4.16906915,18.9684262 C4.16906915,18.9684262 4.12241716,17.5061144 4.09590731,16.6751604 C4.09464367,16.6355516 4.04996806,16.5997454 4.04880319,16.5632324 C4.04738226,16.5186933 4.08941908,16.4717861 4.08799815,16.427247 L3.91820157,11.1049546 C3.91714782,11.0719249 3.8432346,11.052622 3.84218085,11.0195923 C3.84106999,10.9847721 3.91281861,10.9362252 3.91170774,10.901405 C3.87451616,9.73563064 3.80013298,7.40408187 3.80013298,7.40408187 L4.04880319,7.40408187 C4.77175532,7.40408187 5.35093085,6.84457389 5.35093085,6.13822271 L5.35093085,2.70843506 C5.35093085,2.66314697 5.30361938,2.57217407 5.30361938,2.52688599 C5.30361938,2.48591105 5.35093085,2.49062093 5.35093085,2.449646 L5.35093085,0.391434436 C5.3500266,0.175150324 5.17821809,0.0141535615 4.95667553,0.0141535615 L4.86444149,0.0141535615 Z" id="Shape"></path>
                </g>
            </g>
        </g>
    </g>
</svg>