<?xml version="1.0" encoding="UTF-8"?>
<svg width="12px" height="20px" viewBox="0 0 12 20" version="1.1" xmlns="http://www.w3.org/2000/svg" xmlns:xlink="http://www.w3.org/1999/xlink">
    <title>Path 1897 + Path 1898 Copy</title>
    <g id="Monthly-Screens" stroke="none" stroke-width="1" fill="none" fill-rule="evenodd">
        <g id="Profile---OWNER-Copy" transform="translate(-210.000000, -120.000000)">
            <g id="Group-5" transform="translate(198.000000, 108.000000)">
                <g id="Path-1897-+-Path-1898-Copy" transform="translate(12.000000, 12.000000)">
                    <path d="M10.3272633,0.157819274 L10.4211206,0.257450153 L10.5233406,0.33725548 L10.7254147,0.525406172 L10.8477155,0.736647319 L10.8798449,0.836649777 L10.9628091,0.919797888 L11.1384755,1.23233366 L11.2875141,1.55486968 L11.4387258,1.92493495 L11.4635106,2.09898417 L11.531758,2.13898516 L11.606745,2.35456144 L11.606745,2.56273702 L11.606745,3.0240628 L11.7092947,3.39269953 L11.812962,3.73150827 L11.9387396,4.11925855 L11.974225,4.50898723 L11.9899045,4.77101614 L11.9951036,5.06262443 L11.9559321,5.13700828 L12,5.25639324 L11.9951036,5.68365093 L11.970924,6.1133806 L11.9342008,6.42060725 L11.8662559,6.56434674 L11.9072704,6.72937888 L11.8466702,7.10941631 L11.8151734,7.31484271 L11.709295,7.79800065 L11.606745,8.15427345 L11.5017743,8.5002651 L11.3557616,8.91151117 L11.2556598,9.08120635 L11.230875,9.19842833 L11.0986714,9.46877206 L10.9441037,9.59908425 L10.9787088,9.70346884 L10.8636151,9.90069278 L10.723214,10.1145744 L10.5867191,10.3189615 L10.4211207,10.498376 L10.206833,10.7322301 L10.0749319,10.8322325 L9.97366081,10.876823 L9.93497085,10.9461993 L9.73493727,11.1118396 L9.51731628,11.2640249 L9.31225752,11.3945972 L9.18951825,11.5228897 L8.79758188,11.7336335 L8.47779344,11.8595122 L8.18129622,11.9898162 L7.96441825,12.0599594 L7.57337762,12.2060723 L7.19063076,12.3530564 L6.9411878,12.3964845 L6.72634996,12.4214851 L6.6167579,12.419294 L6.60941325,12.7540213 L6.58559129,12.9344471 L6.61023849,13.0092945 L6.60534206,13.2854249 L6.5719748,13.4841938 L6.61483234,13.555291 L6.61223283,13.9298789 L6.65556357,14.0676561 L6.55189629,14.2221723 L6.61116001,14.7860657 L6.61260419,16.1769847 L6.60807911,16.8031799 L6.61419965,17.6393661 L6.60532831,18.4053962 L6.56998047,18.7665287 L6.61787198,18.7763744 L6.66041317,18.7391825 L6.70739691,18.7482417 L7.06977416,18.7482417 L7.55813826,18.7452781 L7.96441834,18.7441826 L8.36076802,18.7454326 L8.96996121,18.7451658 L9.45032047,18.7451658 L9.70129013,18.7439017 L9.80397766,18.7604611 L9.93497098,18.8067263 L10.0275493,18.8604776 L10.1082029,18.9337659 L10.1784309,19.0239367 L10.2286194,19.1233211 L10.2716282,19.2336469 L10.2841719,19.3175675 L10.2806508,19.4041286 L10.2699365,19.498527 L10.2405579,19.5972794 L10.2041235,19.6718318 L10.146893,19.7491792 L10.0590598,19.8538869 L9.97366105,19.9099837 L9.86163453,19.9648306 L9.77502544,19.9862497 L9.69819547,19.9914043 L9.51731632,19.9989045 L9.31225759,20 L8.83905042,19.9099837 L8.79758204,19.9955055 L8.36787885,19.9942555 L7.83581823,19.9931599 L7.44329216,19.9917554 L7.06149424,19.9916009 L5.74648585,19.9939746 L4.90326796,19.9918818 L4.77487415,19.9506308 L4.69500454,19.9907863 L3.95143454,19.8921062 L3.25526091,19.9954774 L2.83840398,19.9917273 L2.77030782,19.9939184 L2.37456331,19.9929774 L2.27785877,19.9929774 L2.17609276,19.9781315 L2.06299343,19.9367119 L1.96291915,19.8695193 L1.87951476,19.7866942 L1.856408,19.7148104 L1.78923335,19.6474632 L1.74025527,19.5263507 L1.78754162,19.3697412 L1.78754162,19.233647 L1.82816977,19.1233216 L1.87951475,18.9837909 L1.96291915,18.893785 L2.08668992,18.860477 L2.21565416,18.7849976 L2.31222942,18.7849976 C2.31222942,18.7849976 2.29827862,18.7611689 2.41316558,18.7485787 C2.52805253,18.7359885 2.62018082,18.7480135 2.64455613,18.7485787 C2.66893143,18.749144 2.51215138,18.7485787 2.51215138,18.7485787 L2.96140621,18.7423286 L3.37126234,18.7394353 L3.71053283,18.7392808 L4.01137458,18.7316261 L4.35537645,18.7408398 L4.64521498,18.74584 L4.89357137,18.7433399 L5.15097791,18.7401376 L5.27922042,18.7401376 L5.39168707,18.7485788 L5.38786345,18.6624671 L5.39016037,18.0775651 L5.41781971,18.0385754 L5.42929057,17.9645005 L5.40006327,17.9210585 L5.39271862,17.8349468 L5.38842737,16.0938085 L5.39216846,14.5148511 L5.48948311,12.462723 L5.40058592,12.3668068 L5.27922045,12.3096842 L5.108047,12.3096842 L4.89357136,12.3096842 L4.69500465,12.3096842 L4.21584188,12.2060725 L3.82668556,12.0599593 L3.48625973,11.9261077 L3.19549968,11.7803036 L2.85807224,11.5876303 L2.46004456,11.3150955 L2.16137595,11.0810729 L1.90689902,10.8530898 L1.60956455,10.5453996 L1.42378234,10.1145744 C1.42378234,10.1145744 1.30178612,9.88241871 1.25600358,9.79031211 C1.22380787,9.72553986 1.13606512,9.59908439 1.13606512,9.59908439 L1.03167553,9.40151435 L0.757351525,9.14609559 L0.567903612,8.68775567 L0.465216076,8.36396962 L0.459865761,8.21535642 L0.419470195,8.13035433 L0.365595687,8.02658773 L0.328872445,7.91703448 L0.209996424,7.41314569 L0.119866311,6.84509802 L0.0785354716,6.46911968 L0.0517563887,6.07079528 L0.0187054714,5.65449291 L0,5.12921315 L0,4.50898728 C0,4.50898728 0.0822057027,4.51731723 0.0897599861,4.41224477 C0.0925120506,4.37396633 0,4.29141738 0,4.29141738 L0.120939125,3.64975263 L0.201895304,3.18750812 L0.321871647,2.68104904 L0.445671609,2.25130533 L0.612989299,1.78543714 L0.813756774,1.33194285 L1.03167552,0.918772582 L1.25600363,0.579986165 L1.50727588,0.257450148 L1.85364349,0.157251055 C1.85364349,0.157251055 1.99100482,0.157060791 2.06391488,0.157251055 C2.1453316,0.157463519 2.46004454,0.157251055 2.46004454,0.157251055 L2.7703079,0.065156094 L4.00678073,0.0074299579 L5.78223255,0.00285119367 L7.57337771,0.00455067365 L7.78869694,0 L9.83313619,0.00765468252 C9.83313619,0.00765468252 10.1674297,0.157447985 10.2041234,0.157251055 C10.2408172,0.157054126 10.2631656,0.178064165 10.2699361,0.181632077" id="Path-1897-Copy-3" fill="#FFFFFF"></path>
                    <path d="M2,4.40741581 L2.15540881,4.20972127 L2.46092236,4.14293108 L2.75814976,4.14293108 C2.75814976,4.14293108 2.93981021,4.14529024 3.04121144,4.14293108 C3.14090972,4.14061154 3.34213806,4.06158932 3.34213806,4.06158932 L4.02609595,4.09375787 L5.63423237,4.08634826 C5.63423237,4.08634826 7.07889782,4.33309429 7.14498634,4.20972127 C7.21107487,4.08634826 8.25613278,4.14293108 8.25613278,4.14293108 C8.25613278,4.14293108 8.60198307,4.0847113 8.75243154,4.07562541 C8.97347622,4.06227607 9.37061221,4.07562541 9.37061221,4.07562541 C9.37061221,4.07562541 9.60834286,4.00015383 9.7846022,4.00000004 C9.8615054,3.99993295 10,4.07562541 10,4.07562541 L9.98642162,4.5441778 L9.96398547,5.20435596 L9.89789694,5.84176313 L9.82178375,6.03609972 L9.78460233,6.2224243 L9.78460233,6.41417055 L9.64828812,7.01868627 L9.49367491,7.47717847 L9.21749277,8.16621194 L8.96257989,8.57374048 L8.6179224,8.9865702 L8.25613281,9.2740992 L7.4146445,9.62000148 L7.14498634,9.78150687 L6.72410958,9.92024127 L6.24844193,10 L5.72620468,9.99331328 L5.19033601,9.9242774 L4.69870316,9.78150687 L4.28976052,9.62000148 L3.65359217,9.27211126 L3.18322858,8.87404052 L2.82737953,8.26344048 L2.46092238,7.60458761 L2.23428011,6.83380747 L2.15540881,6.03609972 L2,5.07038058 L2,4.40741581 Z" id="Path-1898-Copy" fill="#E92160"></path>
                </g>
            </g>
        </g>
    </g>
</svg>