<?xml version="1.0" encoding="UTF-8"?>
<svg width="750px" height="773px" viewBox="0 0 750 773" version="1.1" xmlns="http://www.w3.org/2000/svg" xmlns:xlink="http://www.w3.org/1999/xlink">
    <!-- Generator: Sketch 63.1 (92452) - https://sketch.com -->
    <title>lock</title>
    <desc>Created with Sketch.</desc>
    <g id="lock" stroke="none" stroke-width="1" fill="none" fill-rule="evenodd">
        <g id="padlock" transform="translate(58.000000, 0.000000)" fill="#000000" fill-rule="nonzero">
            <path d="M616.62574,366.736484 C606.382015,356.487453 593.951579,351.366783 579.315215,351.366783 L561.769642,351.366783 C561.769642,324.856407 561.769642,307.859797 561.769642,300.376953 C561.769642,296.667832 557.677734,294.594915 557.677734,292.146484 C557.677734,289.204727 561.769642,285.466446 561.769642,282.943359 C561.769642,274.723001 561.769642,262.392464 561.769642,245.951749 C561.769642,178.608115 537.637032,120.784735 489.356441,72.4719949 C472.49446,55.5967716 454.473519,41.668616 435.292388,30.687528 C432.805278,29.2636713 425.949954,32.0122873 423.423828,30.687528 C419.710791,28.7403242 420.304312,22.7772451 416.50697,21.0441384 C385.767644,7.01471279 352.265859,0 315.997105,0 C276.623881,0 240.507166,8.26744626 207.646959,24.8019538 C203.798708,26.7383062 203.202287,32.6708721 199.443359,34.8339844 C195.832694,36.9117779 189.05607,35.2113502 185.527821,37.4983673 C170.479603,47.2526494 156.180997,58.9098985 142.632004,72.470072 C94.3514128,120.784735 70.2188033,178.606192 70.2188033,245.951749 C70.2188033,270.094593 71.3880564,286.86263 73.7265625,296.255859 C74.3122008,298.608231 70.2188033,304.195338 70.2188033,306.318359 C70.2188033,316.32912 70.2188033,331.345261 70.2188033,351.366783 L52.6655436,351.366783 C38.0407095,351.366783 25.602587,356.487453 15.3607836,366.736484 C5.11898016,376.977823 0,389.424724 0,404.073339 C0,456.249294 0,489.101801 0,502.630859 C0,509.176301 6.00195313,511.505077 6.00195313,515.4375 C6.00195313,518.357624 0,523.985228 0,526.5 C0,601.997653 0,650.567315 0,672.208984 C0,677.116364 6.00195313,679.673004 6.00195313,683.6875 C6.00195313,686.583905 0,691.324791 0,694.101562 C0,699.922835 0,708.654744 0,720.29729 C0,734.932445 5.1209017,747.383191 15.3607836,757.634145 C25.602587,767.873562 38.0407095,773 52.6655436,773 C62.1801469,773 69.2004865,773 73.7265625,773 C75.3345862,773 76.7987789,766.869141 78.3808594,766.869141 C80.6043989,766.869141 82.9331749,773 85.1054687,773 C152.08295,773 194.702091,773 212.962891,773 C220.924754,773 230.94689,766.869141 236.130859,766.869141 C241.566985,766.869141 243.130136,773 247.71875,773 C369.050819,773 446.675819,773 480.59375,773 C486.654612,773 490.750315,762.294922 495.900391,762.294922 C501.848136,762.294922 509.15087,773 514.789062,773 C529.131197,773 550.644398,773 579.328666,773 C593.965029,773 606.393544,767.87933 616.639191,757.634145 C626.871386,747.383191 632,734.932445 632,720.29729 C632,655.281369 632,615.798809 632,601.849609 C632,598.411754 625.298828,596.322562 625.298828,593.886719 C625.298828,591.400316 632,588.218675 632,586.037109 C632,518.975762 632,475.788913 632,456.476562 C632,453.157303 625.298828,453.128657 625.298828,450.273437 C625.298828,447.331216 632,441.393716 632,438.578125 C632,430.909113 632,419.405594 632,404.06757 C632.00766,389.430492 626.871386,376.985515 616.62574,366.736484 Z M456.440476,351.366783 L329.763672,351.366783 L317,357.021484 L310.164063,351.366783 L175.553734,351.366783 C175.553734,332.070088 175.553734,317.597566 175.553734,307.949219 C175.553734,305.639005 171.746094,301.892911 171.746094,299.195312 C171.746094,297.293534 175.553734,296.214758 175.553734,293.474609 C175.553734,286.726914 175.553734,270.88596 175.553734,245.951749 C175.553734,207.157339 189.271601,174.031625 216.701572,146.586142 C229.202257,134.078387 242.878719,124.420917 257.732048,117.613186 C261.147435,116.047811 263.766792,111.348228 267.306641,110.084193 C270.779,108.844258 275.1695,111.034181 278.761645,110.084193 C290.532105,106.971347 302.9457,105.415034 316.002869,105.415034 C354.777607,105.415034 387.86651,119.134891 415.302245,146.586142 C424.625597,155.916727 432.364573,165.90436 438.518794,176.548361 C440.084535,179.256379 445.705969,180.076163 447.066546,182.869141 C448.579486,185.974885 445.807308,191.063867 447.066546,194.274635 C453.315485,210.207988 456.440476,227.43432 456.440476,245.951749 C456.440476,262.503576 456.440476,274.917446 456.440476,283.193359 C456.440476,285.62458 460.992188,290.653226 460.992188,293.474609 C460.992188,295.866479 456.440476,296.462182 456.440476,300.066406 C456.440476,307.548279 456.440476,324.648404 456.440476,351.366783 Z" id="Shape"></path>
        </g>
    </g>
</svg>