<?xml version="1.0" encoding="UTF-8"?>
<svg width="20px" height="20px" viewBox="0 0 20 20" version="1.1" xmlns="http://www.w3.org/2000/svg" xmlns:xlink="http://www.w3.org/1999/xlink">
    <!-- Generator: Sketch 63.1 (92452) - https://sketch.com -->
    <title>Group Copy</title>
    <desc>Created with Sketch.</desc>
    <g id="Page-1" stroke="none" stroke-width="1" fill="none" fill-rule="evenodd">
        <g id="Subscribing-Wine-Shop-Page" transform="translate(-954.000000, -1296.000000)">
            <g id="Group-Copy" transform="translate(954.000000, 1296.000000)">
                <polygon id="Path-2320" fill="#E98181" points="9.20558017 0 10.1513624 0.226934429 11.4152853 0.0224552808 12.8904549 0.310121037 13.8680851 0.718739102 15.7687975 1.81020184 16.8973666 2.76353058 17.8448429 3.80599998 18.300709 4.96755042 18.9468156 5.67880443 19.2273486 6.6702391 19.6684765 7.71440966 20 9.18608113 19.9547691 10.0752762 19.7721517 11.8289996 19.4573991 13.0038191 18.9844233 14.3962166 18.5812419 15.0298978 18.0405045 15.4687965 17.9651197 15.9966657 16.9856261 17.1146665 16.0964247 17.881038 13.905354 19.2792195 13.0048026 19.5042827 11.9253606 19.8201876 10.7439375 20 9.43647775 20 8.27978757 19.8371992 7.53000568 19.6973641 7.02890878 19.5629726 5.8722186 19.1883777 4.77397278 18.5999473 3.72451529 17.801594 2.68471383 16.866978 1.72199117 15.5957029 1.24156157 14.4663043 0.537010528 13.5449573 0 11.0177176 0.0753847587 9.52308046 0.388104454 7.7882399 0.793149304 6.10851685 1.55987159 4.55144726 2.82396388 3.055109 3.59254961 2.18105421 4.21036583 1.56251329 4.88679581 1.57765359 5.47090064 0.913521651 6.82528523 0.504903587 7.8784696 0.368810976"></polygon>
                <path d="M5.94953766,5.48374046 L6.25922173,5.45454545 L6.52151409,5.71609771 L7.09349052,6.03822687 L8.27861083,7.25184246 L9.12379937,8.17110241 L9.90336023,8.98823452 L10.3380754,8.67813327 L12.2786239,6.65722658 L13.1261056,5.78170446 L13.666524,5.49226934 L14.1911087,5.52999322 L14.4704359,5.82063114 L14.5190288,6.07124893 L14.4704359,6.46029698 L14.2688573,6.7509349 L13.1249045,7.83924159 C13.1249045,7.83924159 12.9168035,7.94182302 12.812753,8.04909816 C12.6168016,8.25112241 12.2248988,8.76713976 12.2248988,8.76713976 L11.7305618,9.26203337 L11.3821126,9.58186629 L10.9084139,9.96971155 L11.8071092,10.8184442 L12.5648305,11.6331708 L13.4985782,12.5159096 L14.263725,13.302644 L14.5454545,13.6236797 L14.4689071,13.8851226 L14.3632039,14.2645483 L14.0741582,14.4092112 L13.6953521,14.5454545 L13.3697252,14.3726901 L13.207021,14.0929866 L12.7504663,13.6965032 L12.4237474,13.4192053 L11.2749898,12.250749 L10.0327592,11.0079384 L9.40847722,11.6488071 L8.57781194,12.3564852 L7.90755778,13.0946705 L7.24811416,13.7646248 L6.59849832,14.3471035 L6.20866329,14.4917664 L5.74599354,14.4065869 L5.48490236,14.0674 L5.45454545,13.6125265 L5.62816946,13.2367092 L7.15835383,11.7702889 L8.02046798,10.8850351 L9.01143516,9.98523848 L8.54385153,9.32118879 L8.10913634,9.14601876 C8.10913634,9.14601876 7.7869755,8.67491489 7.62589508,8.49534738 C7.43284805,8.28014448 7.046754,7.96170753 7.046754,7.96170753 L6.25747457,7.16524154 L5.74501077,6.66411529 L5.51416728,6.08174601 C5.51416728,6.08174601 5.67077338,5.75115773 5.74621194,5.64753865" id="Path-2321" fill="#FFFFFF"></path>
            </g>
        </g>
    </g>
</svg>